<svg id="Bold" height="512" viewBox="0 0 24 24" width="512" xmlns="http://www.w3.org/2000/svg"><path d="M3.5 2.161v20.336c0 .952.559 1.298.841 1.411.287.117 1.053.216 1.52-.333 5.954-7.004 6.056-7.121 6.056-7.121.143-.159.157-.145.314-.145h3.852c1.621 0 1.875-1.181 2.047-1.861l2.245-11.392C20.767 1.069 20.273 0 18.425 0H5.805C4.073 0 3.5 1.327 3.5 2.161zm2.668 1.257c0-.361.314-.778.767-.778h10.117c.378 0 .72.361.624.82l-.003-.001-.526 2.798c-.055.305-.439.619-.78.619H11.45c-.555 0-.952.389-.952.952v.609c0 .563.397.966.952.966h4.176c.383 0 .767.431.684.853a376.73 376.73 0 00-.526 2.756c-.041.23-.314.633-.781.633h-3.395c-.624 0-.794.084-1.224.591 0 0-.411.534-4.134 5.078-.041.042-.083.028-.083-.014V3.418z"/></svg>